<svg xmlns="http://www.w3.org/2000/svg" width="23.495" height="23.495" viewBox="0 0 23.495 23.495">
  <path id="Icon_metro-cancel" data-name="Icon metro-cancel" d="M14.318,1.928A11.748,11.748,0,1,0,26.066,13.676,11.748,11.748,0,0,0,14.318,1.928Zm0,21.293a9.545,9.545,0,1,1,9.545-9.545A9.545,9.545,0,0,1,14.318,23.221ZM17.99,7.8l-3.671,3.671L10.647,7.8,8.445,10l3.671,3.671L8.445,17.347l2.2,2.2,3.671-3.671L17.99,19.55l2.2-2.2-3.671-3.671L20.192,10Z" transform="translate(-2.571 -1.928)" fill="#fff"/>
</svg>
