<svg xmlns="http://www.w3.org/2000/svg" width="18" height="18" viewBox="0 0 18 18">
  <g id="Grupo_28" data-name="Grupo 28" transform="translate(-136.3 -715.2)">
    <path id="Path" d="M12,1.5v9A1.5,1.5,0,0,1,10.5,12h-9A1.5,1.5,0,0,1,0,10.5v-9A1.5,1.5,0,0,1,1.5,0h9A1.5,1.5,0,0,1,12,1.5Z" transform="translate(140.8 719.7)" fill="#cf9775"/>
    <path id="Path-2" data-name="Path" d="M15,1.875v11.25A1.875,1.875,0,0,1,13.125,15H1.875A1.875,1.875,0,0,1,0,13.125V1.875A1.875,1.875,0,0,1,1.875,0h11.25A1.875,1.875,0,0,1,15,1.875Z" transform="translate(137.8 716.7)" fill="none" stroke="#000000" stroke-miterlimit="10" stroke-width="3"/>
  </g>
</svg>
