<svg xmlns="http://www.w3.org/2000/svg" width="25.785" height="24.756" viewBox="0 0 25.785 24.756">
  <path id="Exclusão_1" data-name="Exclusão 1" d="M-1607.75,3223.884a1.491,1.491,0,0,1-1.041-.421l-2.717-2.624a1.88,1.88,0,0,0,1.1-1.708v-1.4l3.7,3.575a1.5,1.5,0,0,1,.037,2.121A1.487,1.487,0,0,1-1607.75,3223.884Zm-4.535-2.877h-11.25a1.877,1.877,0,0,1-1.875-1.876v-11.25a1.878,1.878,0,0,1,.047-.418l13.854,13.376A1.855,1.855,0,0,1-1612.285,3221.007Zm1.876-3.277,0,0-12.139-11.722h10.265a1.877,1.877,0,0,1,1.876,1.875v9.849Zm-14.953-10.268h0l-2.85-2.753a1.5,1.5,0,0,1-.037-2.121,1.49,1.49,0,0,1,1.08-.458,1.492,1.492,0,0,1,1.042.421l3.58,3.457h-.985a1.865,1.865,0,0,0-1.827,1.454Z" transform="translate(1630.353 -3200.628)" fill="none" stroke="#000000" stroke-miterlimit="10" stroke-width="3"/>
</svg>